<svg id="Layer_1" data-name="Layer 1" xmlns="http://www.w3.org/2000/svg" viewBox="0 0 217.2 214.7"><defs><style>.cls-1{fill:#34251c;}</style></defs><title>Artboard 1</title><path class="cls-1" d="M121.66,207.57a384,384,0,0,0,46.76-1.19c14.8-1.32,29.7-4.32,41.46-13.95.53-.43-2.18-3.94-2.61-3.59C196.06,198,182,201.18,167.84,202.6c-5.26.52-10.55.9-15.84,1.16a267.63,267.63,0,0,0,51.88-15l1,.5s-.17-.33-.38-.76c1.42-.58,2.83-1.15,4.23-1.75.33-.14-1.76-4-2.61-3.6-1.51.65-3,1.27-4.54,1.89-27.22-17.36-59.24-25.75-91.14-25.28a187.74,187.74,0,0,0,47.13-40.47c14.52-14.12,25.56-31.57,30-51.7.11-.48-.42-1.43-1.06-2.2,2.7,0,5.42,0,8.18.2.84,0-1-3.63-2.19-3.7a120.2,120.2,0,0,0-54.78,9.65,245.57,245.57,0,0,1,41.78-16.87c.65-.2-1.33-4-2.61-3.59A249.59,249.59,0,0,0,32.66,165.81l-3.22.57c.32-.69.65-1.39,1-2.08,21.29-21.84,33.05-52.22,32.95-82.8q0-3.6-.26-7.19C64,60,61.14,45.85,52.28,33.37c-.29-.41-2.38-2.44-1.61-.78a109.61,109.61,0,0,1,9.77,40.63c-1.18,11.83-4.89,23.6-9.24,34.38-7.27,18-15.42,35.63-23.58,53.26q-3.69,3.76-7.75,7.18c-4.4-22.32-8.66-45.32-8.14-68.14,5.8-33.49,21.81-65.24,46.57-89,.54-.53-1.95-4-2.61-3.6C31.87,20.05,17.54,44.69,12,70.53A139.3,139.3,0,0,0,9,97a161.58,161.58,0,0,0,7.75,83.82,7.52,7.52,0,0,0,1,1.44c-.46,1-.93,2-1.39,3.05-.3.67.72,1.86,1.57,2.69l-2.1-.6c.05,0,.51,1.32,1.14,2.36-.5.36-1,.7-1.52,1.07s1.94,3.42,2.47,3.6A268.94,268.94,0,0,0,121.66,207.57ZM119,204c-1.18,0-2.37-.07-3.55-.12a414.83,414.83,0,0,1-90.78-14q3.48-2.28,7.07-4.37a178.3,178.3,0,0,0,62.7-17.14,197.69,197.69,0,0,1,104.2,17.78A268.37,268.37,0,0,1,119,204ZM78,170.72a177.72,177.72,0,0,1-32.48,9A194.62,194.62,0,0,1,78,170.72ZM172,173a199.39,199.39,0,0,0-68.92-9l.41-.23A168.88,168.88,0,0,1,172,173ZM184.31,65.37A175.23,175.23,0,0,1,155,115.6,139.63,139.63,0,0,1,128,136c-26.86,15.69-57.42,22.82-87.85,28.45C76.64,117.65,121.82,67,184.31,65.37ZM56.38,42.66a53.92,53.92,0,0,1,2.68,8q-.84-2.93-1.84-5.79C57,44.14,56.66,43.4,56.38,42.66Zm.07,61.73c1.08-3,2.07-6,2.94-9a119.18,119.18,0,0,1-22,54.12C44.24,134.61,50.87,119.65,56.45,104.39ZM40.61,24.11A161.87,161.87,0,0,0,14.92,72.89C19,54.67,27.5,37.19,40.61,24.11Zm-30.93,93c1.49,17.78,5,35.51,8.45,52.79.1.5,2,3.7,2.63,3.2s1.32-1.08,2-1.63q-2.18,4.71-4.32,9.43A157.15,157.15,0,0,1,9.68,117.08Zm17.67,53.75,2.79-.49-.28.5c-.48.89,2.23,4,2.72,3.42l3.88-5c32.49-5.83,65.46-12.86,94.16-29.63l1.49-.89A188.11,188.11,0,0,1,101,160.11a165.8,165.8,0,0,0-71.49,21.62l-.21.1c-2.09.16-4.18.3-6.27.38-.64,0,.07,1.78,1,2.87-1.54,1-3.07,2-4.58,3Q23.29,179.46,27.35,170.83ZM20.83,192.5l.77-.54a419.35,419.35,0,0,0,52.74,11.36A266.91,266.91,0,0,1,20.83,192.5Z"/></svg>